# xmcd
#
# Track frame offsets:
#	150
#	21201
#	40416
#	58653
#	76578
#	91938
#	111437
#	130097
#	147067
#	161143
#	176691
#	186435
#	207920
#	220765
#	240136
#	256849
#
# Disc length: 3625 seconds
#
# Revision: 1
# Processed by: cddbd v1.5.2PL0 Copyright (c) Steve Scherf et al.
# Submitted via: audiograbber 1.83.01
#
DISCID=d60e2710
DTITLE=Acoustic Rainbow - Acoustic Rainbow 27
DYEAR=2006
DGENRE=Country
TTITLE0=Diden´t It Rain - Jim Byrnes
TTITLE1=World Gone Wrong  - Steve Dawson
TTITLE2=San Francisco Mabel Joy  - Kacey Jones
TTITLE3=Loving Me  - Gypsy Soul
TTITLE4=Shot In The Blue  - Honky Tonk Homeslice
TTITLE5=Small Things  - Isabelle Delage
TTITLE6=Blues Hall Of Fame - Sugar Pie Disanto
TTITLE7=Sophie  - Brad Davis
TTITLE8=Mr Maybe  - Loretta Mcnair
TTITLE9=Farwell To You, Army Of One - Janet Bates
TTITLE10=Chanteuse  - Maria Zemantauski
TTITLE11=Christmas Bells  - Maggie Mckaig and Luke Wilson
TTITLE12=Unsfinsed Bussiness - Alaria Taylor
TTITLE13=Well As You Will  - Tayna Pluth
TTITLE14=Skin  - Borgeois Gypsies
TTITLE15=My Time Will Arrivw  - Laurie Larson
EXTD=
EXTT0=
EXTT1=
EXTT2=
EXTT3=
EXTT4=
EXTT5=
EXTT6=
EXTT7=
EXTT8=
EXTT9=
EXTT10=
EXTT11=
EXTT12=
EXTT13=
EXTT14=
EXTT15=
PLAYORDER=
